<svg xmlns="http://www.w3.org/2000/svg" viewBox="0 0 512 512">
  <defs>
    <linearGradient id="g" x1="0%" y1="0%" x2="100%" y2="100%">
      <stop offset="0%" style="stop-color:#818cf8"/>
      <stop offset="100%" style="stop-color:#6366f1"/>
    </linearGradient>
  </defs>
  <rect width="512" height="512" rx="108" fill="#0a0a0f"/>
  <path fill="url(#g)" d="M256 72 L392 148 V268 C392 356 334 418 256 448 C178 418 120 356 120 268 V148 Z"/>
  <path fill="#0a0a0f" opacity="0.35" d="M256 120 L344 168 V260 C344 318 308 362 256 382 C204 362 168 318 168 260 V168 Z"/>
  <path fill="#fff" d="M256 168 L296 192 V252 C296 282 278 302 256 312 C234 302 216 282 216 252 V192 Z"/>
</svg>